HIERARCHY
ROOT Hips
{
	OFFSET 0.000000 83.214638 0.000000
	CHANNELS 6 Xposition Yposition Zposition Xrotation Yrotation Zrotation
	JOINT Pelvis
	{
		OFFSET 0.000000 0.000000 0.000000
		CHANNELS 3 Xrotation Yrotation Zrotation
		JOINT LeftUpLeg
		{
			OFFSET 8.479700 -4.795502 -0.379100
			CHANNELS 3 Xrotation Yrotation Zrotation
			JOINT LeftLeg
			{
				OFFSET 0.024144 -32.555107 0.112900
				CHANNELS 3 Xrotation Yrotation Zrotation
				JOINT LeftFoot
				{
					OFFSET -0.024144 -32.638630 -3.012600
					CHANNELS 3 Xrotation Yrotation Zrotation
					JOINT LeftToeBase
					{
						OFFSET 0.970200 -13.225400 11.864200
						CHANNELS 3 Xrotation Yrotation Zrotation
						End Site
						{
							OFFSET 0.000000 12.319262 0.000000
						}
					}
					JOINT LFootTongue
					{
						OFFSET 1.142400 -1.059800 6.665200
						CHANNELS 3 Xrotation Yrotation Zrotation
						End Site
						{
							OFFSET 0.000000 12.319262 0.000000
						}
					}
				}
				JOINT LeftPantLeg
				{
					OFFSET 0.918482 -16.533964 -2.284700
					CHANNELS 3 Xrotation Yrotation Zrotation
					End Site
					{
						OFFSET 0.350399 24.744368 0.000000
					}
				}
			}
		}
		JOINT RightUpLeg
		{
			OFFSET -8.479700 -4.795502 -0.379100
			CHANNELS 3 Xrotation Yrotation Zrotation
			JOINT RightLeg
			{
				OFFSET -0.023144 -32.555092 0.112900
				CHANNELS 3 Xrotation Yrotation Zrotation
				JOINT RightFoot
				{
					OFFSET 0.023144 -32.638641 -3.012700
					CHANNELS 3 Xrotation Yrotation Zrotation
					JOINT RightToeBase
					{
						OFFSET -0.970200 -13.225400 11.864200
						CHANNELS 3 Xrotation Yrotation Zrotation
						End Site
						{
							OFFSET 0.000000 12.319244 0.000000
						}
					}
					JOINT RFootTongue
					{
						OFFSET -1.142200 -1.059800 6.665200
						CHANNELS 3 Xrotation Yrotation Zrotation
						End Site
						{
							OFFSET 0.000000 12.319243 0.000000
						}
					}
				}
				JOINT RightPantLeg
				{
					OFFSET -0.919482 -16.533978 -2.284800
					CHANNELS 3 Xrotation Yrotation Zrotation
					End Site
					{
						OFFSET -0.350400 24.744419 0.000000
					}
				}
			}
		}
	}
	JOINT Spine
	{
		OFFSET 0.000000 7.722000 1.166200
		CHANNELS 3 Xrotation Yrotation Zrotation
		JOINT Spine1
		{
			OFFSET 0.000000 12.024101 0.248800
			CHANNELS 3 Xrotation Yrotation Zrotation
			JOINT Spine2
			{
				OFFSET 0.000000 11.502998 -0.491200
				CHANNELS 3 Xrotation Yrotation Zrotation
				JOINT Neck
				{
					OFFSET 0.000000 18.430702 -3.123100
					CHANNELS 3 Xrotation Yrotation Zrotation
					JOINT Head
					{
						OFFSET 0.000000 9.051102 1.034000
						CHANNELS 3 Xrotation Yrotation Zrotation
						JOINT HairB
						{
							OFFSET 0.208400 24.786102 24.822300
							CHANNELS 3 Xrotation Yrotation Zrotation
							End Site
							{
								OFFSET 0.000000 32.263779 0.000000
							}
						}
						JOINT HairA
						{
							OFFSET -7.081100 24.428299 23.196600
							CHANNELS 3 Xrotation Yrotation Zrotation
							End Site
							{
								OFFSET 0.000000 32.263779 0.000000
							}
						}
						JOINT Hat
						{
							OFFSET 16.728800 15.048294 -15.439601
							CHANNELS 3 Xrotation Yrotation Zrotation
							End Site
							{
								OFFSET 0.000000 32.263779 0.000000
							}
						}
					}
				}
				JOINT LeftShoulder
				{
					OFFSET 6.197800 13.665199 -4.064700
					CHANNELS 3 Xrotation Yrotation Zrotation
					JOINT LeftArm
					{
						OFFSET 7.778100 -0.187103 -1.709300
						CHANNELS 3 Xrotation Yrotation Zrotation
						JOINT LeftForeArm
						{
							OFFSET 22.049376 0.000000 0.000000
							CHANNELS 3 Xrotation Yrotation Zrotation
							JOINT LeftHand
							{
								OFFSET 23.009392 0.000000 0.000000
								CHANNELS 3 Xrotation Yrotation Zrotation
								JOINT LeftHandThumb1
								{
									OFFSET 3.507191 -2.063065 3.133727
									CHANNELS 3 Xrotation Yrotation Zrotation
									JOINT LeftHandThumb2
									{
										OFFSET 3.101337 -1.790558 1.790558
										CHANNELS 3 Xrotation Yrotation Zrotation
										JOINT LeftHandThumb3
										{
											OFFSET 3.058640 -1.765907 1.765906
											CHANNELS 3 Xrotation Yrotation Zrotation
											End Site
											{
												OFFSET -0.415260 3.926476 -0.049563
											}
										}
									}
								}
								JOINT LeftHandIndex1
								{
									OFFSET 11.334419 -0.901459 3.706815
									CHANNELS 3 Xrotation Yrotation Zrotation
									JOINT LeftHandIndex2
									{
										OFFSET 3.283112 0.000000 0.000000
										CHANNELS 3 Xrotation Yrotation Zrotation
										JOINT LeftHandIndex3
										{
											OFFSET 3.323853 0.000000 0.000000
											CHANNELS 3 Xrotation Yrotation Zrotation
											End Site
											{
												OFFSET -1.135597 3.097809 0.402452
											}
										}
									}
								}
								JOINT LeftHandMiddle1
								{
									OFFSET 11.335861 0.000000 0.000000
									CHANNELS 3 Xrotation Yrotation Zrotation
									JOINT LeftHandMiddle2
									{
										OFFSET 3.410492 0.000000 0.000000
										CHANNELS 3 Xrotation Yrotation Zrotation
										JOINT LeftHandMiddle3
										{
											OFFSET 3.312172 0.000000 0.000000
											CHANNELS 3 Xrotation Yrotation Zrotation
											End Site
											{
												OFFSET -1.150200 3.080154 0.400270
											}
										}
									}
								}
								JOINT LeftHandRing1
								{
									OFFSET 11.514786 -0.013176 -3.003090
									CHANNELS 3 Xrotation Yrotation Zrotation
									JOINT LeftHandRing2
									{
										OFFSET 3.053307 0.000000 0.000000
										CHANNELS 3 Xrotation Yrotation Zrotation
										JOINT LeftHandRing3
										{
											OFFSET 3.295807 0.000000 0.000000
											CHANNELS 3 Xrotation Yrotation Zrotation
											End Site
											{
												OFFSET -1.281006 3.013344 0.375733
											}
										}
									}
								}
								JOINT LeftHandPinky1
								{
									OFFSET 10.518692 -0.960396 -5.730441
									CHANNELS 3 Xrotation Yrotation Zrotation
									JOINT LeftHandPinky2
									{
										OFFSET 2.861649 0.000000 0.000000
										CHANNELS 3 Xrotation Yrotation Zrotation
										JOINT LeftHandPinky3
										{
											OFFSET 2.863380 0.000000 0.000000
											CHANNELS 3 Xrotation Yrotation Zrotation
											End Site
											{
												OFFSET -0.843597 2.711159 0.369971
											}
										}
									}
								}
							}
							JOINT LSleeve
							{
								OFFSET 6.676277 -0.344902 -1.011730
								CHANNELS 3 Xrotation Yrotation Zrotation
								End Site
								{
									OFFSET 0.000000 14.885353 0.000000
								}
							}
						}
					}
				}
				JOINT RightShoulder
				{
					OFFSET -6.197800 13.665199 -4.064700
					CHANNELS 3 Xrotation Yrotation Zrotation
					JOINT RightArm
					{
						OFFSET -7.778100 -0.187103 -1.709300
						CHANNELS 3 Xrotation Yrotation Zrotation
						JOINT RightForeArm
						{
							OFFSET -22.049376 0.000000 0.000000
							CHANNELS 3 Xrotation Yrotation Zrotation
							JOINT RightHand
							{
								OFFSET -23.009392 0.000000 0.000000
								CHANNELS 3 Xrotation Yrotation Zrotation
								JOINT RightHandThumb1
								{
									OFFSET -3.507191 -2.063065 3.133727
									CHANNELS 3 Xrotation Yrotation Zrotation
									JOINT RightHandThumb2
									{
										OFFSET -3.101337 -1.790558 1.790558
										CHANNELS 3 Xrotation Yrotation Zrotation
										JOINT RightHandThumb3
										{
											OFFSET -3.058640 -1.765907 1.765906
											CHANNELS 3 Xrotation Yrotation Zrotation
											End Site
											{
												OFFSET 0.415260 3.926476 -0.049563
											}
										}
									}
								}
								JOINT RightHandIndex1
								{
									OFFSET -11.334419 -0.901459 3.706815
									CHANNELS 3 Xrotation Yrotation Zrotation
									JOINT RightHandIndex2
									{
										OFFSET -3.283112 0.000000 0.000000
										CHANNELS 3 Xrotation Yrotation Zrotation
										JOINT RightHandIndex3
										{
											OFFSET -3.323853 0.000000 0.000000
											CHANNELS 3 Xrotation Yrotation Zrotation
											End Site
											{
												OFFSET 1.135597 3.097809 0.402452
											}
										}
									}
								}
								JOINT RightHandMiddle1
								{
									OFFSET -11.335861 0.000000 0.000000
									CHANNELS 3 Xrotation Yrotation Zrotation
									JOINT RightHandMiddle2
									{
										OFFSET -3.410492 0.000000 0.000000
										CHANNELS 3 Xrotation Yrotation Zrotation
										JOINT RightHandMiddle3
										{
											OFFSET -3.312172 0.000000 0.000000
											CHANNELS 3 Xrotation Yrotation Zrotation
											End Site
											{
												OFFSET 1.150200 3.080154 0.400270
											}
										}
									}
								}
								JOINT RightHandRing1
								{
									OFFSET -11.514786 -0.013176 -3.003090
									CHANNELS 3 Xrotation Yrotation Zrotation
									JOINT RightHandRing2
									{
										OFFSET -3.053307 0.000000 0.000000
										CHANNELS 3 Xrotation Yrotation Zrotation
										JOINT RightHandRing3
										{
											OFFSET -3.295807 0.000000 0.000000
											CHANNELS 3 Xrotation Yrotation Zrotation
											End Site
											{
												OFFSET 1.281006 3.013344 0.375733
											}
										}
									}
								}
								JOINT RightHandPinky1
								{
									OFFSET -10.518692 -0.960396 -5.730441
									CHANNELS 3 Xrotation Yrotation Zrotation
									JOINT RightHandPinky2
									{
										OFFSET -2.861649 0.000000 0.000000
										CHANNELS 3 Xrotation Yrotation Zrotation
										JOINT RightHandPinky3
										{
											OFFSET -2.863380 0.000000 0.000000
											CHANNELS 3 Xrotation Yrotation Zrotation
											End Site
											{
												OFFSET 0.843597 2.711159 0.369971
											}
										}
									}
								}
							}
							JOINT RSleeve
							{
								OFFSET -6.676277 -0.344902 -1.011730
								CHANNELS 3 Xrotation Yrotation Zrotation
								End Site
								{
									OFFSET 0.000000 14.885353 0.000000
								}
							}
						}
					}
				}
				JOINT Backpack
				{
					OFFSET 0.000000 -2.471497 36.677502
					CHANNELS 3 Xrotation Yrotation Zrotation
					End Site
					{
						OFFSET 0.000000 20.427315 0.000000
					}
				}
				JOINT Hood
				{
					OFFSET 0.000000 18.754097 -10.431000
					CHANNELS 3 Xrotation Yrotation Zrotation
					JOINT Hood1
					{
						OFFSET 0.000000 -5.011002 -7.685901
						CHANNELS 3 Xrotation Yrotation Zrotation
						End Site
						{
							OFFSET 0.000000 9.175140 0.000000
						}
					}
				}
				JOINT LHoodieString
				{
					OFFSET 5.250500 16.397697 3.089900
					CHANNELS 3 Xrotation Yrotation Zrotation
					JOINT LHoodieString1
					{
						OFFSET 0.257700 -6.364304 3.694600
						CHANNELS 3 Xrotation Yrotation Zrotation
						JOINT LHoodieString2
						{
							OFFSET 0.000000 -9.643799 2.679100
							CHANNELS 3 Xrotation Yrotation Zrotation
							End Site
							{
								OFFSET 0.000000 10.009018 0.000000
							}
						}
					}
				}
				JOINT RHoodieString
				{
					OFFSET -5.250500 16.397697 3.089900
					CHANNELS 3 Xrotation Yrotation Zrotation
					JOINT RHoodieString1
					{
						OFFSET -0.257700 -6.364304 3.694600
						CHANNELS 3 Xrotation Yrotation Zrotation
						JOINT RHoodieString2
						{
							OFFSET 0.000000 -9.643799 2.679100
							CHANNELS 3 Xrotation Yrotation Zrotation
							End Site
							{
								OFFSET 0.000000 10.009018 0.000000
							}
						}
					}
				}
			}
			JOINT LBackpack_Strap
			{
				OFFSET 15.223200 -7.719803 -6.610900
				CHANNELS 3 Xrotation Yrotation Zrotation
				End Site
				{
					OFFSET 0.000000 16.040596 0.000000
				}
			}
			JOINT RBackpack_Strap
			{
				OFFSET -15.223000 -7.719803 -6.610900
				CHANNELS 3 Xrotation Yrotation Zrotation
				End Site
				{
					OFFSET 0.000000 16.040596 0.000000
				}
			}
		}
	}
	JOINT BoyFacialAnim_Joint
	{
		OFFSET 1.000000 -82.208099 -1.550900
		CHANNELS 3 Xrotation Yrotation Zrotation
		End Site
		{
			OFFSET 0.000000 30.012791 0.000000
		}
	}
}
MOTION
Frames: 4
Frame Time: 0.033333
0.230085 38.553398 -0.607342 -40.920930 -33.279000 -20.753096 0.000001 -0.000001 -0.000002 -71.605244 -4.141370 23.925722 120.411864 -9.166496 -0.519611 -13.757872 -5.511386 -0.787209 -0.000000 -0.000001 0.000000 -0.000000 -0.000001 0.000000 -0.000001 0.000000 -0.000000 -20.897025 26.178244 -7.522747 140.823611 10.506966 1.231173 -52.848654 -19.135554 23.453767 0.000002 0.000000 -0.000001 0.000002 0.000000 -0.000001 -0.000000 0.000001 0.000001 58.736656 3.149997 1.219737 10.741895 1.133240 -4.734620 17.485730 0.224278 -4.877325 -10.626377 7.119780 2.460940 -14.904368 19.206219 8.616757 0.000001 -0.000000 -0.000001 0.000001 -0.000000 -0.000001 0.000001 -0.000000 -0.000001 -37.559036 -4.830602 1.310665 -73.441636 -19.698479 -69.598009 -0.000009 -48.420526 -0.000012 -123.045093 3.705574 21.294407 4.709220 9.560362 3.111992 19.473180 -1.474915 7.636908 0.000001 -0.000003 0.000004 -0.212819 3.933708 -36.747131 2.942147 5.078909 -60.144597 0.000001 0.000001 -0.000003 0.405913 5.507025 -52.453165 3.387139 5.308632 -65.057470 0.000007 0.000000 -0.000001 -0.074372 5.736776 -61.061434 4.055037 5.569502 -72.094901 -0.000000 0.000001 -0.000004 -6.565574 4.545120 -72.425243 3.299629 5.267219 -64.107835 -0.000000 -0.000000 -0.000004 -0.000003 0.000003 0.000002 -42.139829 -9.769748 -7.575439 -51.706110 45.449100 94.969074 0.000242 103.794157 -0.000254 -36.626719 -25.100899 -25.143065 8.377112 -4.904154 11.021990 21.620207 -18.183897 -18.379218 -0.000001 0.000000 0.000001 -1.101401 1.407126 15.159494 1.422359 -3.352186 45.974085 -0.000002 0.000000 0.000005 3.413056 -7.186255 51.650249 6.296797 -4.359583 110.634673 0.000001 0.000000 -0.000000 -3.349043 -2.600428 57.010554 5.440853 -4.590884 99.698161 -0.000001 0.000001 -0.000003 -3.996457 -3.303942 64.593850 4.058852 -4.618670 82.610537 -0.000001 -0.000002 -0.000002 0.000001 -0.000003 -0.000001 -0.000003 0.000001 -0.000000 -0.000003 0.000001 -0.000000 -0.000003 0.000001 -0.000000 -0.000003 0.000001 -0.000000 -0.000003 0.000001 0.000001 -0.000001 0.000001 0.000001 -0.000003 0.000001 -0.000000 -0.000003 0.000001 0.000001 -0.000001 0.000001 0.000001 0.000003 -0.000000 -0.000001 0.000003 -0.000000 -0.000001 0.000001 -0.000001 -0.000002 
0.238123 38.478661 -0.608669 -40.921842 -33.281046 -20.755717 0.000001 0.000000 0.000000 -71.752326 -4.197192 23.914799 120.514440 -9.158336 -0.519562 -13.703852 -5.511128 -0.789067 0.000000 0.000000 0.000000 0.000000 0.000000 0.000000 0.000001 -0.000000 0.000000 -20.894539 26.274809 -7.557688 140.941787 10.543646 1.234757 -52.944450 -19.105964 23.510590 0.000000 0.000002 -0.000001 0.000000 0.000002 -0.000001 0.000000 -0.000001 -0.000001 58.693503 3.140421 1.159692 10.711360 1.086795 -4.769416 17.460959 0.166541 -4.897260 -10.626381 7.119779 2.460944 -14.885678 19.345594 8.536852 0.000000 0.000000 -0.000001 0.000000 0.000000 -0.000001 0.000000 0.000000 -0.000001 -37.559043 -4.830603 1.310664 -73.491504 -19.691972 -69.561454 0.000004 -48.526950 0.000005 -122.784658 3.665246 21.565206 4.709221 9.560364 3.111991 19.473173 -1.474915 7.636910 -0.000003 0.000003 -0.000001 -0.212819 3.933713 -36.747135 2.942150 5.078912 -60.144597 0.000000 0.000000 -0.000002 0.405913 5.507028 -52.453165 3.387139 5.308631 -65.057477 0.000004 0.000001 0.000000 -0.074371 5.736780 -61.061434 4.055041 5.569503 -72.094901 -0.000001 0.000003 -0.000002 -6.565574 4.545127 -72.425236 3.299629 5.267228 -64.107835 -0.000004 -0.000001 -0.000002 -0.000002 0.000000 0.000004 -42.139836 -9.769751 -7.575435 -51.706062 45.424235 94.949547 0.000197 103.770709 -0.000203 -36.905916 -24.891928 -25.152018 8.377158 -4.904135 11.021994 21.620192 -18.183876 -18.379202 -0.000002 0.000001 0.000001 -1.101402 1.407120 15.159509 1.422371 -3.352202 45.974068 -0.000000 -0.000001 0.000005 3.413062 -7.186263 51.650246 6.296808 -4.359579 110.634667 0.000001 0.000001 -0.000004 -3.349029 -2.600425 57.010561 5.440864 -4.590907 99.698154 0.000001 0.000000 0.000005 -3.996444 -3.303948 64.593864 4.058864 -4.618687 82.610530 0.000001 -0.000000 0.000000 0.000003 0.000001 -0.000001 0.000002 0.000000 0.000001 0.000002 0.000000 0.000001 0.000002 0.000000 0.000001 0.000002 0.000000 0.000001 0.000002 0.000000 0.000001 0.000001 0.000000 -0.000000 0.000002 0.000000 0.000001 0.000002 0.000000 0.000001 0.000001 0.000000 -0.000000 0.000001 0.000001 -0.000001 0.000001 0.000001 -0.000001 0.000001 0.000000 0.000000 
0.241192 38.410942 -0.608154 -40.922716 -33.282904 -20.758260 -0.000003 -0.000001 -0.000001 -71.881095 -4.253587 23.906390 120.610786 -9.155269 -0.519641 -13.661276 -5.510198 -0.795124 -0.000000 -0.000001 -0.000000 -0.000000 -0.000001 0.000000 -0.000001 0.000000 -0.000000 -20.880255 26.354159 -7.590936 141.048392 10.575778 1.238012 -53.044513 -19.079927 23.554852 0.000001 0.000001 -0.000001 0.000001 0.000001 -0.000001 0.000000 -0.000000 0.000002 58.679514 3.124996 1.142224 10.697353 1.036214 -4.776718 17.453124 0.114483 -4.889995 -10.626384 7.119775 2.460940 -14.904301 19.477347 8.544970 0.000000 -0.000001 0.000001 0.000000 -0.000001 0.000001 0.000000 -0.000001 0.000001 -37.559039 -4.830597 1.310665 -73.464149 -19.643359 -69.467873 -0.000004 -48.746452 -0.000006 -122.570654 3.578728 21.836673 4.709221 9.560367 3.111992 19.473177 -1.474913 7.636907 -0.000002 -0.000001 0.000002 -0.212819 3.933710 -36.747131 2.942147 5.078905 -60.144597 0.000000 0.000001 -0.000003 0.405913 5.507022 -52.453165 3.387139 5.308635 -65.057470 0.000006 0.000002 -0.000003 -0.074372 5.736776 -61.061434 4.055043 5.569497 -72.094901 0.000000 0.000003 0.000002 -6.565574 4.545120 -72.425236 3.299631 5.267225 -64.107835 0.000001 -0.000001 0.000001 0.000002 0.000001 0.000000 -42.139822 -9.769731 -7.575437 -51.737351 45.408699 94.961008 -0.000133 103.742446 0.000124 -37.125200 -24.720145 -25.103090 8.377144 -4.904134 11.022007 21.620219 -18.183886 -18.379213 -0.000000 0.000001 0.000001 -1.101412 1.407135 15.159506 1.422353 -3.352202 45.974092 0.000001 -0.000001 0.000005 3.413060 -7.186280 51.650242 6.296806 -4.359591 110.634653 0.000001 0.000001 -0.000000 -3.349032 -2.600439 57.010551 5.440853 -4.590922 99.698161 0.000001 0.000001 -0.000001 -3.996448 -3.303954 64.593871 4.058855 -4.618678 82.610510 -0.000001 -0.000001 -0.000002 0.000001 0.000003 0.000001 -0.000000 0.000002 -0.000002 -0.000000 0.000002 -0.000002 -0.000000 0.000002 -0.000002 -0.000000 0.000002 -0.000002 -0.000000 0.000002 -0.000002 -0.000002 -0.000000 -0.000001 -0.000000 0.000002 -0.000002 -0.000000 0.000002 -0.000002 -0.000002 -0.000000 -0.000001 -0.000003 0.000000 -0.000001 -0.000003 0.000000 -0.000001 -0.000003 -0.000001 -0.000001 
0.240229 38.366135 -0.604332 -40.923283 -33.284178 -20.760063 -0.000001 0.000001 -0.000000 -71.962204 -4.293200 23.902139 120.679949 -9.156172 -0.519687 -13.641817 -5.509170 -0.800307 -0.000000 0.000001 0.000000 -0.000000 0.000001 0.000000 -0.000000 0.000003 -0.000001 -20.854881 26.403083 -7.617917 141.116708 10.595795 1.240220 -53.123825 -19.061823 23.581976 -0.000000 -0.000000 -0.000000 -0.000000 -0.000000 -0.000000 0.000000 -0.000001 0.000002 58.687950 3.104630 1.158164 10.696010 0.983691 -4.762629 17.457987 0.068049 -4.861765 -10.626382 7.119776 2.460943 -14.948632 19.609369 8.647786 -0.000000 -0.000001 -0.000002 -0.000000 -0.000001 -0.000002 -0.000000 -0.000001 -0.000002 -37.559029 -4.830595 1.310660 -73.384755 -19.567063 -69.339138 0.000015 -49.034300 0.000013 -122.409312 3.460493 22.084583 4.709221 9.560366 3.111992 19.473177 -1.474919 7.636911 -0.000001 -0.000002 0.000003 -0.212818 3.933721 -36.747135 2.942149 5.078912 -60.144597 -0.000004 0.000001 -0.000003 0.405913 5.507029 -52.453162 3.387139 5.308629 -65.057470 0.000001 0.000000 -0.000002 -0.074371 5.736780 -61.061440 4.055040 5.569503 -72.094894 0.000003 0.000000 -0.000002 -6.565574 4.545128 -72.425243 3.299626 5.267221 -64.107828 0.000001 0.000002 -0.000002 -0.000000 0.000000 0.000000 -42.139825 -9.769757 -7.575437 -51.790463 45.397388 94.992256 0.000374 103.712775 -0.000384 -37.278206 -24.591867 -25.006335 8.377125 -4.904136 11.021992 21.620219 -18.183890 -18.379207 -0.000001 0.000001 0.000001 -1.101399 1.407118 15.159513 1.422345 -3.352200 45.974089 0.000001 0.000000 0.000004 3.413056 -7.186274 51.650246 6.296820 -4.359577 110.634673 0.000001 0.000001 -0.000002 -3.349038 -2.600425 57.010558 5.440848 -4.590888 99.698154 0.000000 0.000001 -0.000001 -3.996450 -3.303931 64.593837 4.058845 -4.618690 82.610516 0.000001 -0.000001 -0.000002 0.000002 0.000003 -0.000003 -0.000002 -0.000000 -0.000001 -0.000002 -0.000000 -0.000001 -0.000002 -0.000000 -0.000001 -0.000002 -0.000000 -0.000001 -0.000002 -0.000000 -0.000001 -0.000003 -0.000000 -0.000001 -0.000002 -0.000000 -0.000001 -0.000002 -0.000000 -0.000001 -0.000003 -0.000000 -0.000001 -0.000000 -0.000001 0.000000 -0.000000 -0.000001 0.000000 -0.000001 0.000001 -0.000000 
